<svg width="593" height="205" viewBox="0 0 593 205" fill="none" xmlns="http://www.w3.org/2000/svg">
<path d="M29.4065 2.08632H0.154297V48.9998H7.23254V8.17957H29.4065V2.08632Z" fill="#272727"/>
<path d="M53.7747 50.0964C49.3023 50.0964 45.3675 49.0643 41.9702 47.0001C38.5728 44.9359 35.9281 42.0546 34.0359 38.3563C32.1867 34.6579 31.2622 30.3575 31.2622 25.4551C31.2622 20.4236 32.1867 16.0372 34.0359 12.2959C35.9281 8.55451 38.5728 5.65174 41.9702 3.58755C45.3675 1.48035 49.3023 0.426758 53.7747 0.426758C58.2902 0.426758 62.225 1.48035 65.5793 3.58755C68.9337 5.65174 71.5354 8.55451 73.3846 12.2959C75.2767 16.0372 76.2228 20.4236 76.2228 25.4551C76.2228 30.3575 75.2767 34.6579 73.3846 38.3563C71.5354 42.0546 68.9337 44.9359 65.5793 47.0001C62.225 49.0643 58.2902 50.0964 53.7747 50.0964ZM68.8046 40.2914C70.4818 38.6143 71.5999 36.6791 72.159 34.4859C72.718 32.2497 72.7825 29.949 72.3525 27.5838C71.9224 25.1755 71.0839 22.8103 69.8367 20.4881C68.5896 18.1659 66.9985 16.0372 65.0633 14.102C63.1281 12.1668 60.9779 10.5542 58.6127 9.26407C56.2905 7.97395 53.9038 7.11388 51.4525 6.68384C49.0443 6.21079 46.7221 6.25379 44.4859 6.81285C42.2927 7.3719 40.3575 8.49 38.6804 10.1672C37.0032 11.8443 35.8851 13.801 35.326 16.0372C34.767 18.2734 34.681 20.6171 35.068 23.0684C35.4981 25.5196 36.3366 27.9278 37.5837 30.293C38.8739 32.6152 40.508 34.7439 42.4862 36.6791C44.4214 38.5713 46.5501 40.1409 48.8723 41.388C51.1945 42.6352 53.5597 43.4737 55.9679 43.9038C58.4192 44.3338 60.7414 44.2693 62.9346 43.7103C65.1708 43.1512 67.1275 42.0116 68.8046 40.2914Z" fill="#272727"/>
<path d="M78.0851 8.17957H92.6997V48.9998H99.7551V8.17957H114.393V2.08632H78.0851V8.17957Z" fill="#272727"/>
<path d="M158.312 25.543C158.312 10.539 149.332 1.44493 137.191 1.44493C125.005 1.44493 116.048 10.539 116.048 25.543C116.048 40.5242 125.005 49.6411 137.191 49.6411C149.332 49.6411 158.312 40.5471 158.312 25.543ZM151.302 25.543C151.302 36.9736 145.255 43.1814 137.191 43.1814C129.105 43.1814 123.081 36.9736 123.081 25.543C123.081 14.1125 129.105 7.90469 137.191 7.90469C145.255 7.90469 151.302 14.1125 151.302 25.543Z" fill="#272727"/>
<path d="M164.234 48.9998H182.216C193.119 48.9998 198.044 43.5708 198.044 36.378C198.044 29.1165 192.959 25.0162 188.309 24.7642V24.3061C192.615 23.2065 196.212 20.2744 196.212 14.4103C196.212 7.46945 191.401 2.08632 181.414 2.08632H164.234V48.9998ZM171.312 42.9294V27.9025H181.781C187.461 27.9025 191.012 31.5676 191.012 36.0344C191.012 39.9744 188.332 42.9294 181.529 42.9294H171.312ZM171.312 22.3819V8.11085H180.979C186.591 8.11085 189.271 11.0658 189.271 14.96C189.271 19.4956 185.56 22.3819 180.796 22.3819H171.312Z" fill="#272727"/>
<path d="M210.684 21.0075V2.08632H203.583V48.9998H221.153C231.598 48.9998 237.577 43.1814 237.554 34.7745C237.577 26.3906 231.598 21.0075 221.153 21.0075H210.684ZM210.684 26.9633H221.153C227.223 26.9633 230.567 30.4451 230.567 34.6829C230.567 39.0352 227.223 43.0439 221.153 43.0439H210.684V26.9633Z" fill="#272727"/>
<path d="M238.387 8.17957H253.002V48.9998H260.057V8.17957H274.695V2.08632H238.387V8.17957Z" fill="#272727"/>
<path d="M280.284 1.88975V48.9998H307.81V42.2698H287.014V8.61975H296.907C292.802 12.1866 290.177 16.6957 290.177 22.2143C290.177 28.2713 293.408 33.0496 299.868 33.0496C302.762 33.0496 305.454 32.1074 307.742 30.2903V14.6767C307.742 19.7915 304.647 26.3869 298.792 26.3869C295.023 26.3869 293.004 23.6277 293.004 20.0608C293.004 11.2444 305.454 3.77415 312.992 1.88975H280.284Z" fill="#272727"/>
<path d="M321.121 42.5858H314.524L314.295 45.1514C313.768 51.3592 312.302 57.6128 311.684 60.4532H316.54C317.64 57.4524 320.068 50.5803 320.778 45.0827L321.121 42.5858Z" fill="#272727"/>
<path d="M0.154297 74.0863V121H6.65987L30.506 86.5935H30.9412V121H38.0195V74.0863H31.4681L7.59905 108.538H7.16382V74.0863H0.154297Z" fill="#272727"/>
<path d="M61.1333 121.641C70.7084 121.641 77.7408 115.914 77.7179 108.126C77.7408 102.193 74.1444 97.9325 67.9137 96.9704V96.6039C72.8158 95.344 75.9999 91.4956 75.977 86.227C75.9999 79.332 70.3419 73.4449 61.3165 73.4449C52.7035 73.4449 45.7856 78.6448 45.5566 86.2728H52.4057C52.5661 81.9663 56.6206 79.3549 61.2249 79.3549C66.0125 79.3549 69.1507 82.2641 69.1278 86.5935C69.1507 91.1291 65.5085 94.107 60.3086 94.107H56.3457V99.8795H60.3086C66.8142 99.8795 70.5709 103.178 70.5709 107.897C70.5709 112.455 66.608 115.548 61.0875 115.548C56.0021 115.548 52.0392 112.937 51.7643 108.767H44.5716C44.8693 116.418 51.6498 121.641 61.1333 121.641Z" fill="#272727"/>
<path d="M81.4613 121H87.7738V81.1873H90.3363V99.7498H92.6488V105.5H95.3988V111.25H97.8363V117H100.274V121H108.336V117H111.461V111.25H113.899V105.5H116.649V99.7498H118.961V81.1873H121.524V121H127.836V74.1248H125.274V73.9998L113.586 74.0623V97.9373H111.336V103.687H108.524V109.5H106.024V115.437H103.274V109.5H100.774V103.687H97.9613V97.9373H95.7113V74.0623L84.0238 73.9998V74.1248H81.4613V121Z" fill="#272727"/>
<path d="M132.694 121H162.382V114.907H139.773V100.544H160.572V94.4735H139.773V80.1796H162.107V74.0863H132.694V121Z" fill="#272727"/>
<path d="M168.659 121H175.737V100.544H199.125V121H206.226V74.0863H199.125V94.4735H175.737V74.0863H168.659V121Z" fill="#272727"/>
<path d="M244.923 121V74.0863H228.201C217.32 74.0863 211.96 80.1567 211.96 88.7926C211.96 95.092 214.823 99.8795 220.573 102.01L210.173 121H218.236L227.765 103.247C227.926 103.247 228.063 103.247 228.224 103.247H237.844V121H244.923ZM237.844 97.1536H228.865C221.97 97.1536 219.084 94.0841 219.084 88.7926C219.084 83.4782 221.97 80.1567 228.957 80.1567H237.844V97.1536Z" fill="#272727"/>
<path d="M283.596 121V74.0863H266.874C255.993 74.0863 250.633 80.1567 250.633 88.7926C250.633 95.092 253.496 99.8795 259.246 102.01L248.846 121H256.909L266.439 103.247C266.599 103.247 266.737 103.247 266.897 103.247H276.518V121H283.596ZM276.518 97.1536H267.538C260.643 97.1536 257.757 94.0841 257.757 88.7926C257.757 83.4782 260.643 80.1567 267.63 80.1567H276.518V97.1536Z" fill="#272727"/>
<path d="M305.147 121H312.225V104.507H321.846C332.727 104.507 338.11 97.9324 338.11 89.2736C338.11 80.6377 332.773 74.0863 321.869 74.0863H305.147V121ZM312.225 98.5051V80.1567H321.113C328.123 80.1567 330.986 83.9592 330.986 89.2736C330.986 94.588 328.123 98.5051 321.205 98.5051H312.225Z" fill="#272727"/>
<path d="M343.505 121H373.193V114.907H350.584V100.544H371.383V94.4735H350.584V80.1796H372.918V74.0863H343.505V121Z" fill="#272727"/>
<path d="M421.092 114.746H415.686V74.0863H408.883V114.861H386.251V74.0863H379.47V121H413.418V132.087H420.474L421.092 114.746Z" fill="#272727"/>
<path d="M425.955 121H455.642V114.907H433.033V100.544H453.832V94.4735H433.033V80.1796H455.367V74.0863H425.955V121Z" fill="#272727"/>
<path d="M460.14 73.7498V121H466.89V80.4998H485.453C490.38 80.4998 493.89 84.0772 493.89 89.0047C493.89 98.7922 480.39 102.64 480.39 113.575C480.39 116.275 481.2 118.907 482.888 121H492.068C500.1 121 500.64 109.255 500.64 103.517V88.1273C500.64 80.4998 495.443 73.7498 487.41 73.7498H460.14ZM499.02 95.4173C499.02 97.1723 499.088 98.9273 499.088 100.682C499.088 105.34 499.02 118.975 492.135 118.975C489.03 118.975 487.14 116.477 487.14 113.507C487.14 107.702 496.32 100.952 499.02 95.4173Z" fill="#272727"/>
<path d="M502.447 80.1796H517.062V121H524.117V80.1796H538.755V74.0863H502.447V80.1796Z" fill="#272727"/>
<path d="M551.022 93.0075V74.0863H543.921V121H561.49C571.936 121 577.915 115.181 577.892 106.775C577.915 98.3906 571.936 93.0075 561.49 93.0075H551.022ZM589.299 74.0863H582.221V121H589.299V74.0863ZM551.022 98.9633H561.49C567.561 98.9633 570.905 102.445 570.905 106.683C570.905 111.035 567.561 115.044 561.49 115.044H551.022V98.9633Z" fill="#272727"/>
<path d="M36.8283 146.086H0.635343V193H7.69068V152.134H29.773V193H36.8283V146.086Z" fill="#272727"/>
<path d="M85.5006 169.543C85.5006 154.539 76.521 145.445 64.3803 145.445C52.1939 145.445 43.2372 154.539 43.2372 169.543C43.2372 184.524 52.1939 193.641 64.3803 193.641C76.521 193.641 85.5006 184.547 85.5006 169.543ZM78.491 169.543C78.491 180.974 72.4436 187.181 64.3803 187.181C56.2942 187.181 50.2697 180.974 50.2697 169.543C50.2697 158.112 56.2942 151.905 64.3803 151.905C72.4436 151.905 78.491 158.112 78.491 169.543Z" fill="#272727"/>
<path d="M87.8721 204.339H94.6526V193H126.15V204.27H132.93V186.998H127.616V146.086H98.6842L97.5847 165.901C96.8745 178.958 94.1028 184.341 90.9645 186.998H87.8721V204.339ZM99.3027 186.998C101.983 182.715 103.792 175.82 104.365 165.901L105.098 152.18H120.835V186.998H99.3027Z" fill="#272727"/>
<path d="M190.915 161.342C189.311 151.309 181.454 145.445 171.535 145.445C159.395 145.445 150.438 154.539 150.438 169.543C150.438 184.547 159.349 193.641 171.535 193.641C181.843 193.641 189.38 187.181 190.915 177.904L183.768 177.881C182.554 183.883 177.514 187.181 171.581 187.181C163.541 187.181 157.471 181.019 157.471 169.543C157.471 158.158 163.518 151.905 171.604 151.905C177.583 151.905 182.599 155.272 183.768 161.342H190.915Z" fill="#272727"/>
<path d="M228.878 179.437C228.878 173.5 225.378 169.187 219.19 167.687C223.378 166.875 226.69 163.125 226.69 158.062C226.69 151 221.315 146.125 212.565 146.125H195.44V193H219.815V188.812H225.565V184.375H228.878V179.437ZM201.753 151.437H211.628C217.253 151.437 220.378 154 220.378 158C220.378 163.062 217.253 165.562 211.503 165.562H201.753V151.437ZM201.753 170.875H209.44C218.44 170.875 222.565 173.937 222.565 179.125V183.5H218.565V187.687H201.753V170.875Z" fill="#272727"/>
<path d="M274.486 169.543C274.486 154.539 265.506 145.445 253.365 145.445C241.179 145.445 232.222 154.539 232.222 169.543C232.222 184.524 241.179 193.641 253.365 193.641C265.506 193.641 274.486 184.547 274.486 169.543ZM267.476 169.543C267.476 180.974 261.429 187.181 253.365 187.181C245.279 187.181 239.255 180.974 239.255 169.543C239.255 158.112 245.279 151.905 253.365 151.905C261.429 151.905 267.476 158.112 267.476 169.543Z" fill="#272727"/>
<path d="M280.408 146.086V193H286.913L310.759 158.594H311.195V193H318.273V146.086H311.721L287.852 180.538H287.417V146.086H280.408ZM303.841 134.175C303.841 136.488 302.559 138.527 299.352 138.527C296.099 138.527 294.885 136.465 294.885 134.175H289.273C289.273 139.329 293.19 142.879 299.352 142.879C305.559 142.879 309.477 139.329 309.477 134.175H303.841Z" fill="#272727"/>
<path d="M339.864 193H346.942V176.507H356.563C367.444 176.507 372.827 169.932 372.827 161.274C372.827 152.638 367.49 146.086 356.586 146.086H339.864V193ZM346.942 170.505V152.157H355.83C362.84 152.157 365.703 155.959 365.703 161.274C365.703 166.588 362.84 170.505 355.922 170.505H346.942Z" fill="#272727"/>
<path d="M377.209 193L381.515 180.584H399.841L404.124 193H411.638L394.755 146.086H386.578L369.695 193H377.209ZM383.577 174.628L390.495 154.608H390.861L397.779 174.628H383.577Z" fill="#272727"/>
<path d="M457.132 186.746H451.726V146.086H444.922V186.861H422.29V146.086H415.51V193H449.458V204.087H456.513L457.132 186.746Z" fill="#272727"/>
<path d="M461.994 146.086V193H468.5L492.346 158.594H492.781V193H499.86V146.086H493.308L469.439 180.538H469.004V146.086H461.994Z" fill="#272727"/>
<path d="M527.588 194.005C541.524 194.005 552.043 183.486 552.043 169.55C552.043 155.614 541.524 145.095 527.588 145.095C513.652 145.095 503.133 155.614 503.133 169.55C503.133 183.486 513.652 194.005 527.588 194.005ZM511.575 161.644C514.59 159.299 517.404 156.485 519.749 153.47C521.893 150.656 523.635 147.373 527.655 147.373C531.541 147.373 533.35 150.656 535.427 153.403C537.772 156.485 540.452 159.165 543.467 161.51C546.281 163.654 549.832 165.53 549.832 169.55C549.832 173.57 546.482 175.312 543.668 177.456C540.653 179.734 537.973 182.347 535.695 185.362C533.551 188.176 531.675 191.794 527.655 191.794C523.568 191.794 521.558 188.243 519.414 185.362C517.069 182.28 514.59 179.801 511.508 177.456C508.761 175.379 505.478 173.503 505.478 169.55C505.478 165.53 508.761 163.788 511.575 161.644Z" fill="#272727"/>
<path d="M555.171 193H562.25V172.544H585.638V193H592.739V146.086H585.638V166.474H562.25V146.086H555.171V193Z" fill="#272727"/>
</svg>
