<svg width="495" height="171" viewBox="0 0 495 171" fill="none" xmlns="http://www.w3.org/2000/svg">
<path d="M137.648 1.82729H113.222V41H119.132V6.91515H137.648V1.82729ZM157.995 41.9157C154.261 41.9157 150.975 41.0539 148.138 39.3303C145.302 37.6067 143.093 35.2008 141.513 32.1127C139.969 29.0246 139.197 25.4337 139.197 21.3402C139.197 17.1389 139.969 13.4763 141.513 10.3523C143.093 7.22823 145.302 4.80441 148.138 3.08081C150.975 1.32131 154.261 0.441554 157.995 0.441554C161.766 0.441554 165.051 1.32131 167.852 3.08081C170.653 4.80441 172.825 7.22823 174.369 10.3523C175.949 13.4763 176.739 17.1389 176.739 21.3402C176.739 25.4337 175.949 29.0246 174.369 32.1127C172.825 35.2008 170.653 37.6067 167.852 39.3303C165.051 41.0539 161.766 41.9157 157.995 41.9157ZM170.545 33.7286C171.946 32.3281 172.879 30.7123 173.346 28.8809C173.813 27.0137 173.867 25.0926 173.508 23.1177C173.149 21.1068 172.448 19.1318 171.407 17.1928C170.366 15.2537 169.037 13.4763 167.421 11.8604C165.805 10.2445 164.01 8.89796 162.035 7.82071C160.096 6.74346 158.103 6.0253 156.056 5.66621C154.045 5.27122 152.106 5.30713 150.239 5.77394C148.408 6.24075 146.792 7.17436 145.391 8.57479C143.991 9.97521 143.057 11.609 142.591 13.4763C142.124 15.3435 142.052 17.3005 142.375 19.3473C142.734 21.3941 143.434 23.4049 144.476 25.3799C145.553 27.3189 146.917 29.0964 148.569 30.7123C150.185 32.2922 151.963 33.6029 153.902 34.6442C155.841 35.6856 157.816 36.3858 159.827 36.7449C161.873 37.1039 163.812 37.0501 165.644 36.5833C167.511 36.1165 169.145 35.1649 170.545 33.7286ZM178.294 6.91515H190.498V41H196.389V6.91515H208.611V1.82729H178.294V6.91515ZM245.284 21.4136C245.284 8.88526 237.786 1.29172 227.648 1.29172C217.472 1.29172 209.994 8.88526 209.994 21.4136C209.994 33.9229 217.472 41.5356 227.648 41.5356C237.786 41.5356 245.284 33.942 245.284 21.4136ZM239.431 21.4136C239.431 30.9582 234.381 36.1417 227.648 36.1417C220.896 36.1417 215.866 30.9582 215.866 21.4136C215.866 11.8691 220.896 6.68562 227.648 6.68562C234.381 6.68562 239.431 11.8691 239.431 21.4136ZM250.229 41H265.243C274.348 41 278.46 36.4668 278.46 30.4609C278.46 24.3975 274.214 20.9737 270.331 20.7633V20.3808C273.927 19.4627 276.93 17.0144 276.93 12.1178C276.93 6.3222 272.913 1.82729 264.574 1.82729H250.229V41ZM256.139 35.9313V23.3838H264.88C269.624 23.3838 272.588 26.4441 272.588 30.1739C272.588 33.4638 270.35 35.9313 264.67 35.9313H256.139ZM256.139 18.7741V6.85777H264.211C268.897 6.85777 271.135 9.32519 271.135 12.5768C271.135 16.364 268.036 18.7741 264.058 18.7741H256.139ZM289.014 17.6264V1.82729H283.085V41H297.756C306.478 41 311.47 36.1417 311.451 29.1219C311.47 22.1214 306.478 17.6264 297.756 17.6264H289.014ZM289.014 22.5995H297.756C302.824 22.5995 305.617 25.5069 305.617 29.0454C305.617 32.6796 302.824 36.0269 297.756 36.0269H289.014V22.5995ZM312.147 6.91515H324.35V41H330.241V6.91515H342.464V1.82729H312.147V6.91515ZM347.13 1.66315V41H370.114V35.3804H352.75V7.2827H361.011C357.583 10.2611 355.391 14.0262 355.391 18.6342C355.391 23.6918 358.089 27.6817 363.483 27.6817C365.9 27.6817 368.148 26.8949 370.058 25.3776V12.3403C370.058 16.6112 367.473 22.1183 362.584 22.1183C359.437 22.1183 357.751 19.8143 357.751 16.8359C357.751 9.47432 368.148 3.23662 374.441 1.66315H347.13ZM381.23 35.6444H375.721L375.53 37.7866C375.09 42.9701 373.866 48.1919 373.349 50.5637H377.404C378.322 48.058 380.35 42.3198 380.943 37.7292L381.23 35.6444ZM1.21473 61.8273V101H6.64688L26.5584 72.2708H26.9218V101H32.8322V61.8273H27.3617L7.4311 90.5947H7.06768V61.8273H1.21473ZM52.1322 101.536C60.1274 101.536 65.9995 96.7537 65.9803 90.2505C65.9995 85.2965 62.9965 81.7388 57.7939 80.9355V80.6294C61.8871 79.5774 64.5458 76.364 64.5267 71.9648C64.5458 66.2074 59.8213 61.2917 52.2852 61.2917C45.0933 61.2917 39.3169 65.6336 39.1256 72.003H44.8447C44.9786 68.4071 48.3641 66.2266 52.2087 66.2266C56.2063 66.2266 58.8267 68.6557 58.8076 72.2708C58.8267 76.058 55.7855 78.5445 51.4436 78.5445H48.1346V83.3646H51.4436C56.8757 83.3646 60.0126 86.119 60.0126 90.0592C60.0126 93.8655 56.7036 96.4477 52.0939 96.4477C47.8477 96.4477 44.5386 94.2672 44.3091 90.786H38.3031C38.5518 97.1745 44.2135 101.536 52.1322 101.536ZM69.1061 101H74.377V67.7566H76.5167V83.2562H78.4476V88.0575H80.7439V92.8587H82.7792V97.66H84.8145V101H91.5467V97.66H94.1561V92.8587H96.1914V88.0575H98.4876V83.2562H100.419V67.7566H102.558V101H107.829V61.8594H105.69V61.755L95.9304 61.8072V81.7428H94.0517V86.5441H91.7033V91.3975H89.6158V96.3553H87.3195V91.3975H85.232V86.5441H82.8836V81.7428H81.0048V61.8072L71.2458 61.755V61.8594H69.1061V101ZM111.886 101H136.675V95.9121H117.796V83.9193H135.164V78.8506H117.796V66.9152H136.445V61.8273H111.886V101ZM141.916 101H147.827V83.9193H167.356V101H173.285V61.8273H167.356V78.8506H147.827V61.8273H141.916V101ZM205.596 101V61.8273H191.633C182.548 61.8273 178.072 66.896 178.072 74.107C178.072 79.367 180.463 83.3646 185.264 85.1435L176.58 101H183.313L191.27 86.1763C191.404 86.1763 191.519 86.1763 191.653 86.1763H199.686V101H205.596ZM199.686 81.0885H192.188C186.431 81.0885 184.021 78.5254 184.021 74.107C184.021 69.6695 186.431 66.896 192.265 66.896H199.686V81.0885ZM237.889 101V61.8273H223.926C214.84 61.8273 210.364 66.896 210.364 74.107C210.364 79.367 212.755 83.3646 217.556 85.1435L208.872 101H215.605L223.562 86.1763C223.696 86.1763 223.811 86.1763 223.945 86.1763H231.978V101H237.889ZM231.978 81.0885H224.48C218.723 81.0885 216.313 78.5254 216.313 74.107C216.313 69.6695 218.723 66.896 224.557 66.896H231.978V81.0885ZM255.884 101H261.794V87.2283H269.828C278.913 87.2283 283.408 81.7388 283.408 74.5087C283.408 67.2977 278.951 61.8273 269.847 61.8273H255.884V101ZM261.794 82.217V66.896H269.215C275.068 66.896 277.459 70.0712 277.459 74.5087C277.459 78.9462 275.068 82.217 269.292 82.217H261.794ZM287.913 101H312.702V95.9121H293.823V83.9193H311.191V78.8506H293.823V66.9152H312.472V61.8273H287.913V101ZM352.698 95.7782H348.184V61.8273H342.503V95.8739H323.605V61.8273H317.943V101H346.29V110.258H352.181L352.698 95.7782ZM356.758 101H381.547V95.9121H362.668V83.9193H380.036V78.8506H362.668V66.9152H381.318V61.8273H356.758V101ZM385.303 61.5462V101H390.939V67.1825H406.439C410.553 67.1825 413.484 70.1697 413.484 74.2842C413.484 82.4567 402.212 85.6694 402.212 94.8001C402.212 97.0546 402.888 99.2528 404.297 101H411.962C418.67 101 419.12 91.1929 419.12 86.4021V73.5515C419.12 67.1825 414.781 61.5462 408.073 61.5462H385.303ZM417.768 79.6386C417.768 81.104 417.824 82.5695 417.824 84.0349C417.824 87.9239 417.768 99.3091 412.019 99.3091C409.426 99.3091 407.848 97.2237 407.848 94.7438C407.848 89.8966 415.513 84.2603 417.768 79.6386ZM420.629 66.9152H432.832V101H438.724V66.9152H450.946V61.8273H420.629V66.9152ZM461.189 77.6264V61.8273H455.26V101H469.93C478.652 101 483.645 96.1417 483.626 89.1219C483.645 82.1214 478.652 77.6264 469.93 77.6264H461.189ZM493.151 61.8273H487.241V101H493.151V61.8273ZM461.189 82.5995H469.93C474.999 82.5995 477.792 85.5069 477.792 89.0454C477.792 92.6796 474.999 96.0269 469.93 96.0269H461.189V82.5995ZM30.4088 121.827H0.187646V161H6.07885V126.877H24.5176V161H30.4088V121.827ZM71.0501 141.414C71.0501 128.885 63.5522 121.292 53.4147 121.292C43.239 121.292 35.7602 128.885 35.7602 141.414C35.7602 153.923 43.239 161.536 53.4147 161.536C63.5522 161.536 71.0501 153.942 71.0501 141.414ZM65.1971 141.414C65.1971 150.958 60.1475 156.142 53.4147 156.142C46.6628 156.142 41.6323 150.958 41.6323 141.414C41.6323 131.869 46.6628 126.686 53.4147 126.686C60.1475 126.686 65.1971 131.869 65.1971 141.414ZM73.0303 170.468H78.692V161H104.992V170.411H110.654V155.989H106.216V121.827H82.0584L81.1403 138.372C80.5474 149.275 78.233 153.77 75.6125 155.989H73.0303V170.468ZM82.5749 155.989C84.8127 152.412 86.3238 146.655 86.802 138.372L87.4141 126.915H100.555V155.989H82.5749ZM159.071 134.566C157.732 126.188 151.171 121.292 142.889 121.292C132.752 121.292 125.273 128.885 125.273 141.414C125.273 153.942 132.713 161.536 142.889 161.536C151.496 161.536 157.789 156.142 159.071 148.395L153.103 148.376C152.089 153.387 147.881 156.142 142.927 156.142C136.214 156.142 131.145 150.996 131.145 141.414C131.145 131.907 136.195 126.686 142.947 126.686C147.939 126.686 152.128 129.497 153.103 134.566H159.071ZM190.77 149.675C190.77 144.717 187.848 141.117 182.681 139.864C186.178 139.186 188.944 136.054 188.944 131.827C188.944 125.93 184.455 121.859 177.149 121.859H162.85V161H183.203V157.503H188.004V153.798H190.77V149.675ZM168.121 126.295H176.366C181.063 126.295 183.673 128.435 183.673 131.775C183.673 136.002 181.063 138.09 176.262 138.09H168.121V126.295ZM168.121 142.526H174.54C182.055 142.526 185.499 145.083 185.499 149.414V153.067H182.159V156.564H168.121V142.526ZM228.853 141.414C228.853 128.885 221.355 121.292 211.217 121.292C201.041 121.292 193.563 128.885 193.563 141.414C193.563 153.923 201.041 161.536 211.217 161.536C221.355 161.536 228.853 153.942 228.853 141.414ZM223 141.414C223 150.958 217.95 156.142 211.217 156.142C204.465 156.142 199.435 150.958 199.435 141.414C199.435 131.869 204.465 126.686 211.217 126.686C217.95 126.686 223 131.869 223 141.414ZM233.797 121.827V161H239.23L259.141 132.271H259.505V161H265.415V121.827H259.944L240.014 150.595H239.65V121.827H233.797ZM253.365 111.881C253.365 113.813 252.294 115.515 249.616 115.515C246.9 115.515 245.886 113.794 245.886 111.881H241.2C241.2 116.185 244.471 119.149 249.616 119.149C254.799 119.149 258.07 116.185 258.07 111.881H253.365ZM283.444 161H289.354V147.228H297.387C306.473 147.228 310.968 141.739 310.968 134.509C310.968 127.298 306.511 121.827 297.406 121.827H283.444V161ZM289.354 142.217V126.896H296.775C302.628 126.896 305.019 130.071 305.019 134.509C305.019 138.946 302.628 142.217 296.852 142.217H289.354ZM314.626 161L318.222 150.633H333.524L337.101 161H343.375L329.278 121.827H322.449L308.353 161H314.626ZM319.944 145.66L325.72 128.943H326.026L331.803 145.66H319.944ZM381.362 155.778H376.848V121.827H371.167V155.874H352.269V121.827H346.608V161H374.954V170.258H380.846L381.362 155.778ZM385.422 121.827V161H390.855L410.766 132.271H411.13V161H417.04V121.827H411.569L391.639 150.595H391.275V121.827H385.422ZM440.193 161.839C451.83 161.839 460.613 153.056 460.613 141.419C460.613 129.783 451.83 120.999 440.193 120.999C428.557 120.999 419.773 129.783 419.773 141.419C419.773 153.056 428.557 161.839 440.193 161.839ZM426.822 134.818C429.34 132.86 431.69 130.51 433.648 127.992C435.438 125.643 436.892 122.901 440.249 122.901C443.494 122.901 445.004 125.643 446.739 127.937C448.697 130.51 450.935 132.748 453.452 134.706C455.802 136.496 458.767 138.063 458.767 141.419C458.767 144.776 455.97 146.231 453.62 148.021C451.102 149.923 448.865 152.105 446.962 154.622C445.172 156.972 443.606 159.993 440.249 159.993C436.836 159.993 435.158 157.028 433.368 154.622C431.41 152.049 429.34 149.979 426.766 148.021C424.473 146.286 421.731 144.72 421.731 141.419C421.731 138.063 424.473 136.608 426.822 134.818ZM463.225 161H469.136V143.919H488.665V161H494.594V121.827H488.665V138.851H469.136V121.827H463.225V161Z" fill="#272727"/>
</svg>
